inDegrees=no
num_controls=7
num_derivatives=13
num_iterations=122
num_multipliers=7
num_parameters=0
num_slacks=7
num_states=26
objective=0.431096
objective_accelerations=0.050294
objective_balance=0.006887
objective_effort=0.031287
objective_height=0.341466
objective_ligament=0.001162
solver_duration=1737.525858
status=Solve_Succeeded
success=true
DataType=double
version=3
OpenSimVersion=4.5
endheader
time	/jointset/ground_pelvis/pelvis_tilt/value	/jointset/ground_pelvis/pelvis_tx/value	/jointset/ground_pelvis/pelvis_ty/value	/jointset/hip_l/hip_flexion_l/value	/jointset/hip_l/hip_adduction_l/value	/jointset/hip_l/hip_rotation_l/value	/jointset/back/lumbar_extension/value	/jointset/patellofemoral_l/patellar_flexion_l/value	/jointset/knee_l/knee_flexion_l/value	/jointset/knee_l/knee_adduction_l/value	/jointset/knee_l/knee_rotation_l/value	/jointset/ankle_l/ankle_angle_l/value	/jointset/subtalar_l/subtalar_angle_l/value	/jointset/ground_pelvis/pelvis_tilt/speed	/jointset/ground_pelvis/pelvis_tx/speed	/jointset/ground_pelvis/pelvis_ty/speed	/jointset/hip_l/hip_flexion_l/speed	/jointset/hip_l/hip_adduction_l/speed	/jointset/hip_l/hip_rotation_l/speed	/jointset/back/lumbar_extension/speed	/jointset/patellofemoral_l/patellar_flexion_l/speed	/jointset/knee_l/knee_flexion_l/speed	/jointset/knee_l/knee_adduction_l/speed	/jointset/knee_l/knee_rotation_l/speed	/jointset/ankle_l/ankle_angle_l/speed	/jointset/subtalar_l/subtalar_angle_l/speed	/forceset/tau_hip_flexion_l	/forceset/tau_hip_adduction_l	/forceset/tau_hip_rotation_l	/forceset/tau_knee_flexion_l	/forceset/tau_ankle_angle_l	/forceset/tau_subtalar_angle_l	/forceset/tau_lumbar_extension	lambda_cid13_p0	lambda_cid13_p1	lambda_cid13_p2	lambda_cid13_p3	lambda_cid13_p4	lambda_cid13_p5	lambda_cid14_p0	/jointset/ground_pelvis/pelvis_tilt/accel	/jointset/ground_pelvis/pelvis_tx/accel	/jointset/ground_pelvis/pelvis_ty/accel	/jointset/hip_l/hip_flexion_l/accel	/jointset/hip_l/hip_adduction_l/accel	/jointset/hip_l/hip_rotation_l/accel	/jointset/back/lumbar_extension/accel	/jointset/patellofemoral_l/patellar_flexion_l/accel	/jointset/knee_l/knee_flexion_l/accel	/jointset/knee_l/knee_adduction_l/accel	/jointset/knee_l/knee_rotation_l/accel	/jointset/ankle_l/ankle_angle_l/accel	/jointset/subtalar_l/subtalar_angle_l/accel	gamma_cid13_p0	gamma_cid13_p1	gamma_cid13_p2	gamma_cid13_p3	gamma_cid13_p4	gamma_cid13_p5	gamma_cid14_p0
1	-0.4504637842013718	-0.05668085403353215	0.5895191593161246	1.788820688663431	-0.2720943032246393	0.2249984490861237	-0.4363294969023078	1.42761661211142	1.427616612111465	-0.1745025193616417	0.1745321127832999	0.3063433740177464	0.04819637743223192	-0.009924539384226317	8.785631121862748e-05	-0.003708877727313493	0.01746436696465007	0.0008942332454083084	0.003243709512907116	-3.82215990968309e-05	0.008359945647309207	0.008359945647309894	-3.628493828160934e-05	-1.896870463744173e-06	0.001247509969921813	0.00145219037553767	-0.3314179807130892	0.004882408458568839	-0.01245144523598625	-0.3733178016978665	0.06103127163589119	0.01465775540771019	0.2961380172865149	-26.69541126286384	-0.2232260338111884	-2.044169810015691	14.83951124566103	-730.0377601400652	-54.68300441180317	-0.0391736640245229	1.023950887281647	0.004038897718877519	1.825243089882234	-5.742321617850831	-0.6077250411056655	-2.08463437162641	-0.01251025142134974	-5.552608626442263	-5.552608626442248	-0.06614342389495366	0.01867634731235323	-1.133785620954456	-1.071959045972972	2.21081587760715e-10	-2.314442467471138e-10	-8.235650919464881e-09	-9.914103117710718e-10	1.707506766788716e-09	-7.393876763642342e-09	1.399006886175379e-09
1.01	-0.4505122336203462	-0.05667979908284861	0.5895732366027258	1.788708819000991	-0.2721149062086586	0.2249246123120053	-0.4363300129364507	1.427422890777604	1.427422890777223	-0.1745029766501821	0.1745321479642154	0.3062994058441463	0.04815853891452112	0.0002337374965447777	0.0001228143920081803	0.01452227387789598	-0.03983268690733449	-0.00501174055409849	-0.01800844790864332	-6.204197118444456e-05	-0.04710568327518842	-0.04710568327518801	-5.513164942242534e-05	7.132879180179127e-06	-0.01004789837968669	-0.009016425764331553	-0.331417041103703	0.004924777932361236	-0.01247547969159601	-0.3731601754920813	0.06094187318746418	0.01469639593717363	0.2961325781756661	-26.71549115898188	-0.2416850935559533	-2.035294790670049	14.8442084354651	-729.9345396234714	-54.69505794152572	-0.03918724342220667	1.011628709342694	0.003177697899082637	1.821740125172339	-5.722555300708605	-0.5815772133009353	-2.145120168333706	0.003123558605934312	-5.543759022376494	-5.54375902237655	0.03024740592699759	-0.00826460426665746	-1.128430533563443	-1.033797811883702	-2.080473236249232e-09	-3.729606092945059e-09	4.723255637864414e-08	6.670910975007112e-09	-9.364277456211247e-09	3.256896794167473e-08	-8.066885249635697e-09
1.02	-0.4504591277463395	-0.05667840386442914	0.5898095631912453	1.788024147194063	-0.2721944776634584	0.2246383312154885	-0.4363306788765701	1.426674469355119	1.426674469354311	-0.174503621865704	0.1745322172640195	0.3061422811687303	0.04801611725263367	0.0103865192120305	0.0001559098584008469	0.03274098265638516	-0.09709606193277301	-0.0108994609107152	-0.03924515496676785	-6.820279493581286e-05	-0.1025800720866056	-0.1025800720866059	-7.387033453751388e-05	4.926906541381423e-06	-0.02138379039327105	-0.019464438459793	-0.3314161014943177	0.004967147406153288	-0.01249951414720386	-0.3730025492862962	0.06085247473903718	0.01473503646663659	0.2961271390648166	-26.7435545936889	-0.2577161387047466	-2.027983782704116	14.89643763119906	-729.9335805389234	-54.65473433228483	-0.03919441182889577	1.022851854224572	0.0036663748395006	1.822754524538175	-5.735585848541619	-0.6040743525276483	-2.081544298941229	-0.00897834175409939	-5.55436060422618	-5.554360604226242	-0.06612181868981011	0.01642920285581009	-1.141882353749625	-1.067838357091418	-3.979766065196184e-09	-6.387041216730316e-09	1.023553186879962e-07	1.307056585884638e-08	-1.946343632523156e-08	7.526853565805293e-08	-1.77772496662809e-08
1.03	-0.4503044011079413	-0.05667663388954314	0.5902279271257547	1.786767092940154	-0.2723327695675982	0.2241398811614834	-0.4363313129553769	1.425371489677951	1.425371489677002	-0.1745044604598984	0.1745322348108324	0.3058716199900803	0.04776943824848778	0.02056986598491778	0.0002030353918426061	0.05092105482893617	-0.1543010246968417	-0.01674911296778314	-0.06043249741419509	-5.511394344069379e-05	-0.1579945169201443	-0.1579945169201445	-9.199884419710768e-05	-3.654811448070669e-07	-0.03275262712308735	-0.0298556762864123	-0.3312097424914346	0.005036136954230087	-0.01258023466914134	-0.3725588811313232	0.06087557437016536	0.01485186243161534	0.2959972563127004	-26.70461973611928	-0.3317629303837704	-1.99734067552613	14.81970320125881	-729.5611617505923	-54.65787132370392	-0.03922406434942585	1.017735674603806	0.005982113731245371	1.814015179451449	-5.710886670670499	-0.5739628365684065	-2.135496382869314	0.006977352008263355	-5.531778901973331	-5.531778901973286	0.03060741474812057	-0.008887172007979552	-1.135008133508585	-1.022431252778954	-5.874954179907795e-09	-9.035897496409316e-09	1.574745560484835e-07	1.945733639163525e-08	-2.955267044574187e-08	1.17996029119442e-07	-2.749010869803666e-08
1.04	-0.4500475090846577	-0.05667424336509577	0.590827768105157	1.784938402022538	-0.2725292684331631	0.2234299242499588	-0.4363317111749799	1.423515007056635	1.423515007055546	-0.1745054271828188	0.1745322236912828	0.30548714568395	0.04741931391460934	0.03081959618912553	0.0002800197706730241	0.06903639163500079	-0.2114233946741511	-0.0225408531957327	-0.08154652647065622	-2.10309556674489e-05	-0.2132806609159082	-0.2132806609159081	-9.949607977045802e-05	-8.06365916782467e-07	-0.04414641588934181	-0.04015350440630233	-0.3310033834885532	0.005105126502306775	-0.01266095519107834	-0.3721152129763502	0.06089867400129377	0.01496868839659399	0.2958673735605824	-26.67375437111362	-0.4033312243966709	-1.968310106277134	14.79058707697512	-729.2916035749964	-54.60925344069442	-0.0392472945289475	1.036128540488666	0.009638143917233524	1.809807451240898	-5.719067291189762	-0.5924919867039762	-2.066881620748006	-0.004779514498449033	-5.528700436671238	-5.528700436671247	-0.063995563872564	0.01739950343866026	-1.146872761037256	-1.04915641574557	-7.976507089898653e-09	-1.3043119493855e-08	2.10309973493267e-07	2.565715754651096e-08	-3.960216034587537e-08	1.552602993515563e-07	-3.667091970117605e-08
1.05	-0.4496877857938575	-0.05667092946366529	0.591608356199665	1.782539095577181	-0.2727833341663725	0.2225093140732433	-0.4363318046352412	1.42110640513141	1.421106405130281	-0.1745064581261805	0.1745322365082068	0.3049885022040985	0.04696675422356621	0.04113616794277315	0.0003880603579718811	0.08706229408401686	-0.268404832525276	-0.02825554644885059	-0.1025552934772711	-8.193818415313073e-06	-0.2684084275396868	-0.2684084275396839	-0.0001039055487040317	3.604984775851762e-06	-0.05559667857976251	-0.05033380294928783	-0.3303636314864973	0.0051994760940395	-0.01280044530125449	-0.371539755887498	0.06117140714651794	0.01514031927582802	0.2954102529936211	-26.53207189929607	-0.5274914052923872	-1.92017267662864	14.66191475379197	-728.5926279582152	-54.60939027653453	-0.03929855448270582	1.0310888968416	0.01218842531272663	1.796131632766461	-5.682722515886264	-0.5584848157326746	-2.114876952702213	0.002735419797709509	-5.500111027217554	-5.500111027217121	0.03173502997521441	-0.008063560451193484	-1.146257083979458	-0.9988011168539458	-1.008450889974199e-08	-1.709279041998089e-08	2.630740215656847e-07	3.185113653332689e-08	-4.965040823912211e-08	1.923538438577557e-07	-4.583510420342119e-08
1.06	-0.4492245633047128	-0.05666637487452653	0.59256863331687	1.779570966656551	-0.2730940521963363	0.2213792156840449	-0.4363320857057483	1.418147466289549	1.41814746628838	-0.1745074534305553	0.1745322883363674	0.3043749252851558	0.04641312463843743	0.05151943585797248	0.0005281573123295583	0.1049741961744119	-0.3251878897288983	-0.03387131254664777	-0.1234441689672454	-5.855300273664084e-05	-0.323348044242921	-0.323348044242915	-9.236828247872511e-05	6.995882038149933e-06	-0.06713310370758239	-0.06036748322342954	-0.3297238794844411	0.005293825685772487	-0.01293993541143112	-0.3709642987986457	0.06144414029174226	0.01531195015506244	0.2949531324266603	-26.39859561106396	-0.6491328183249905	-1.873672877598915	14.58087097573112	-727.9972971607896	-54.55928368256876	-0.03934348279020697	1.049467772799011	0.01604941732899805	1.787007379516694	-5.679391161689233	-0.5727065556398354	-2.042903317419893	-0.01741877881311454	-5.491070452562372	-5.491070452562328	-0.06080621684078866	0.01719541275259497	-1.164105248517091	-1.019832761976817	-1.450724132963822e-08	-2.305846046561839e-08	3.121251698812443e-07	4.17357682140154e-08	-6.046697655723999e-08	2.251925074550009e-07	-5.445354078560636e-08
